# xmcd
#
# Track frame offsets:
#	150
#	18348
#	36706
#	53255
#	79595
#	94420
#	120928
#	140365
#	147931
#	170852
#
# Disc length: 2502 seconds
#
# Revision: 0
# Processed by: cddbd v1.5.2PL0 Copyright (c) Steve Scherf et al.
# Submitted via: dBpowerAMP V4.0
#
DISCID=8209c40a
DTITLE=Bachi Da Pietra - Non Io
DYEAR=1900
DGENRE=Blues
TTITLE0=Casa Di Legno
TTITLE1=Altri Guasti
TTITLE2=Non Io
TTITLE3=Fisica Elementare
TTITLE4=Lunedi
TTITLE5=Farfallazza
TTITLE6=Check Life
TTITLE7=Bastiano
TTITLE8=Giorno Perso
TTITLE9=Ofelia
EXTD=
EXTT0=
EXTT1=
EXTT2=
EXTT3=
EXTT4=
EXTT5=
EXTT6=
EXTT7=
EXTT8=
EXTT9=
PLAYORDER=
